<?xml version="1.0" encoding="UTF-8"?>
<svg id="uuid-685d414d-ce96-4f18-a571-823eb07a9efc" data-name="图层 2" xmlns="http://www.w3.org/2000/svg" viewBox="0 0 43.44287109375 22.36962890625">
  <g id="uuid-016c7627-ba13-4651-b40f-06daeff99187" data-name="图层 1">
    <g>
      <g>
        <path d="M9.3291015625,4.89111328125c0,.2255859375-.06201171875.419921875-.18603515625.58349609375s-.26513671875.2900390625-.4228515625.38037109375c-.29296875-.19140625-.61962890625-.3662109375-.98046875-.5244140625-.36083984375-.15771484375-.80615234375-.236328125-1.33544921875-.236328125-.95849609375,0-1.72216796875.31005859375-2.291015625.9296875-.5693359375.6201171875-.85400390625,1.51611328125-.85400390625,2.68798828125,0,1.1953125.29296875,2.09130859375.87939453125,2.6884765625.5859375.59765625,1.375.89599609375,2.36669921875.89599609375.5185546875,0,.966796875-.0703125,1.34423828125-.21142578125.37744140625-.140625.712890625-.306640625,1.005859375-.49853515625.15771484375.1015625.28759765625.23974609375.38916015625.4140625.1015625.1748046875.15185546875.375.15185546875.60009765625,0,.19189453125-.05029296875.36669921875-.15185546875.5244140625s-.2705078125.298828125-.50732421875.42236328125c-.2255859375.13525390625-.5439453125.26220703125-.955078125.38037109375-.41162109375.11865234375-.92138671875.177734375-1.5302734375.177734375-.74365234375,0-1.4345703125-.10986328125-2.0712890625-.32958984375s-1.19189453125-.55224609375-1.6650390625-.99755859375c-.4736328125-.4453125-.84521484375-1.005859375-1.11572265625-1.68212890625s-.40576171875-1.47119140625-.40576171875-2.38427734375c0-.87890625.13525390625-1.65380859375.40576171875-2.32470703125.2705078125-.67041015625.63916015625-1.23388671875,1.107421875-1.6904296875.46728515625-.45654296875,1.01416015625-.80322265625,1.6396484375-1.0400390625.62548828125-.236328125,1.28759765625-.35498046875,1.98681640625-.35498046875.484375,0,.923828125.04248046875,1.318359375.126953125s.73291015625.2001953125,1.0146484375.3466796875.49609375.3154296875.642578125.50732421875c.146484375.19140625.2197265625.39453125.2197265625.6083984375Z" fill="#29abe2" stroke="#000" stroke-miterlimit="10" stroke-width=".5"/>
        <path d="M24.47802734375,12.29638671875c.6533203125,0,1.1328125-.126953125,1.4365234375-.38037109375.3046875-.25341796875.4560546875-.57177734375.4560546875-.955078125,0-.349609375-.1181640625-.62841796875-.3544921875-.8369140625s-.59765625-.38623046875-1.08203125-.53271484375l-1.08203125-.33837890625c-.4287109375-.13525390625-.8173828125-.287109375-1.166015625-.4560546875-.349609375-.16943359375-.6484375-.369140625-.896484375-.6005859375-.248046875-.23046875-.439453125-.5009765625-.5751953125-.8115234375-.134765625-.3095703125-.2021484375-.6787109375-.2021484375-1.107421875,0-.91259765625.34375-1.63671875,1.03125-2.17236328125.6875-.53515625,1.6279296875-.80322265625,2.8232421875-.80322265625.4736328125,0,.9091796875.03662109375,1.3095703125.10986328125.400390625.07373046875.7470703125.17529296875,1.0400390625.3046875s.521484375.2900390625.6845703125.4814453125c.1630859375.19189453125.2451171875.40576171875.2451171875.642578125,0,.2255859375-.0537109375.419921875-.16015625.58349609375-.107421875.16357421875-.240234375.2958984375-.3974609375.39697265625-.2705078125-.19140625-.62890625-.357421875-1.0732421875-.49853515625-.4462890625-.140625-.9326171875-.21142578125-1.462890625-.21142578125-.5859375,0-1.03125.1044921875-1.3349609375.31298828125-.3046875.20849609375-.45703125.4931640625-.45703125.853515625,0,.29345703125.1044921875.5185546875.3125.67626953125.208984375.158203125.5380859375.310546875.9892578125.45654296875l.9638671875.3046875c.98046875.29296875,1.7412109375.69287109375,2.2822265625,1.2001953125s.8115234375,1.19482421875.8115234375,2.0625c0,.46240234375-.08984375.88525390625-.2705078125,1.26806640625-.1806640625.38330078125-.4423828125.712890625-.7861328125.9892578125s-.7724609375.490234375-1.28515625.642578125c-.5126953125.15185546875-1.095703125.22802734375-1.7490234375.22802734375-.5185546875,0-.9951171875-.04541015625-1.4287109375-.13525390625-.4345703125-.09033203125-.8095703125-.21142578125-1.125-.36328125-.3154296875-.15234375-.560546875-.33251953125-.7353515625-.541015625s-.26171875-.43701171875-.26171875-.68505859375c0-.25927734375.076171875-.48193359375.228515625-.66796875.1513671875-.185546875.3291015625-.32373046875.5322265625-.4140625.28125.248046875.6533203125.4765625,1.1162109375.68505859375.4619140625.20849609375,1.0029296875.3125,1.623046875.3125Z" fill="#29abe2" stroke="#000" stroke-miterlimit="10" stroke-width=".5"/>
        <path d="M31.74755859375,13.953125c-.4287109375,0-.732421875-.07861328125-.9130859375-.236328125s-.2705078125-.4228515625-.2705078125-.794921875V3.572265625c.1015625-.0224609375.248046875-.05078125.439453125-.08447265625s.3828125-.05078125.5751953125-.05078125c.4052734375,0,.7041015625.07373046875.8955078125.2197265625.1923828125.14697265625.2880859375.41748046875.2880859375.8115234375v9.349609375c-.1015625.0224609375-.2451171875.05078125-.431640625.0849609375-.185546875.03369140625-.3798828125.05029296875-.5830078125.05029296875Z" fill="#29abe2" stroke="#000" stroke-miterlimit="10" stroke-width=".5"/>
        <path d="M35.67724609375,13.54736328125c-.2080078125-.2138671875-.3125-.5009765625-.3125-.8623046875v-7.9462890625c0-.3603515625.1044921875-.64501953125.3125-.853515625.208984375-.20849609375.4931640625-.31298828125.8544921875-.31298828125h5.595703125c.056640625.09033203125.107421875.208984375.15234375.35498046875.044921875.14697265625.0673828125.310546875.0673828125.49072265625,0,.29296875-.0673828125.5185546875-.2021484375.67626953125-.1357421875.15771484375-.3212890625.236328125-.55859375.236328125h-4.091796875v2.40087890625h4.1259765625c.0556640625.09033203125.109375.2060546875.16015625.3466796875.05078125.14111328125.076171875.3017578125.076171875.48193359375,0,.6083984375-.2587890625.9130859375-.77734375.9130859375h-3.5849609375v2.62060546875h4.7001953125c.056640625.09033203125.1103515625.2109375.1611328125.36328125s.076171875.318359375.076171875.49853515625c0,.60888671875-.259765625.9130859375-.7783203125.9130859375h-5.1220703125c-.361328125,0-.6455078125-.10693359375-.8544921875-.3212890625Z" fill="#29abe2" stroke="#000" stroke-miterlimit="10" stroke-width=".5"/>
      </g>
      <circle cx="14.924405701920932" cy="8.545802292186636" r="5.575627602203667" fill="none" stroke="#000" stroke-miterlimit="10" stroke-width=".5"/>
      <path d="M12.367951999844081,6.075160604668781c-.911443859731662,1.322055835246829-1.372395873697315,3.345289708392556-.464334613428946,4.629400175660521,1.699852738373011,2.403801141688746,5.125283019848212,1.633027254614717,6.308932414647643-.669958542222957,1.316905578898513-2.562257757497719-3.475075331440166-7.185194770116141-5.750889770100912-4.085368146434121l-.093708031117785.125926512996557Z" fill="#29abe2" stroke="#000" stroke-miterlimit="10" stroke-width=".430705756962274"/>
      <circle cx="17.252960222118418" cy="8.545802292186181" r=".522848241201928"/>
      <circle cx="16.07091980519408" cy="10.884183046707676" r=".659192175661701"/>
      <circle cx="15.934575870734989" cy="6.984844584383382" r=".522848241201814"/>
      <path d="M13.083788388794346,7.768947425883198c-.34956574466014.507047611979942-.526354509316661,1.283017791534803-.178086091844307,1.775512229808555.65194392606827.921929010920394,1.965698003561556.626314371661465,2.41966264185794-.256948965320589.505072335963632-.982701821342744-1.332794426140026-2.75573523649291-2.205636741620765-1.566859815964563l-.035939808392868.048296551476597Z"/>
    </g>
  </g>
</svg>